<mxfile host="app.diagrams.net" agent="Mozilla/5.0 (Windows NT 10.0; Win64; x64; rv:138.0) Gecko/20100101 Firefox/138.0" version="26.2.5">
  <diagram name="Seite-1" id="oEGDo0tmPSHdqjAtFq5t">
    <mxGraphModel dx="2253" dy="772" grid="1" gridSize="10" guides="1" tooltips="1" connect="1" arrows="1" fold="1" page="1" pageScale="1" pageWidth="827" pageHeight="1169" math="0" shadow="0">
      <root>
        <mxCell id="0" />
        <mxCell id="1" parent="0" />
        <mxCell id="JNNgizCDDAsmNPhYfwY6-1" value="&lt;font style=&quot;font-size: 16px;&quot;&gt;Temporal graph (2.2)&lt;/font&gt;" style="rounded=0;whiteSpace=wrap;html=1;fontStyle=1;align=center;verticalAlign=top;fontSize=13;" vertex="1" parent="1">
          <mxGeometry x="-803.77" y="20" width="314.85530546623795" height="250" as="geometry" />
        </mxCell>
        <mxCell id="JNNgizCDDAsmNPhYfwY6-3" value="&lt;font style=&quot;font-size: 16px;&quot;&gt;A&lt;/font&gt;" style="ellipse;whiteSpace=wrap;html=1;aspect=fixed;fillColor=#FF0000;fontSize=13;" vertex="1" parent="1">
          <mxGeometry x="-764.4130868167202" y="98.12499999999999" width="29.843247588424443" height="29.843247588424443" as="geometry" />
        </mxCell>
        <mxCell id="JNNgizCDDAsmNPhYfwY6-11" value="&lt;font style=&quot;font-size: 16px;&quot;&gt;B&lt;/font&gt;" style="ellipse;whiteSpace=wrap;html=1;aspect=fixed;fillColor=light-dark(#ff0000, #ededed);fontSize=13;" vertex="1" parent="1">
          <mxGeometry x="-662.7410610932476" y="54.37499999999999" width="29.843247588424443" height="29.843247588424443" as="geometry" />
        </mxCell>
        <mxCell id="JNNgizCDDAsmNPhYfwY6-12" value="&lt;font style=&quot;font-size: 16px;&quot;&gt;C&lt;/font&gt;" style="ellipse;whiteSpace=wrap;html=1;aspect=fixed;fillColor=light-dark(#ff0000, #ededed);fontSize=13;" vertex="1" parent="1">
          <mxGeometry x="-567.6285209003215" y="98.12499999999999" width="29.843247588424443" height="29.843247588424443" as="geometry" />
        </mxCell>
        <mxCell id="JNNgizCDDAsmNPhYfwY6-13" value="&lt;font style=&quot;font-size: 16px;&quot;&gt;E&lt;/font&gt;" style="ellipse;whiteSpace=wrap;html=1;aspect=fixed;fillColor=light-dark(#00ff00, #ededed);strokeColor=#000000;gradientColor=none;fontSize=13;" vertex="1" parent="1">
          <mxGeometry x="-662.7410610932476" y="129.375" width="29.843247588424443" height="29.843247588424443" as="geometry" />
        </mxCell>
        <mxCell id="JNNgizCDDAsmNPhYfwY6-14" value="&lt;font style=&quot;font-size: 16px;&quot;&gt;D&lt;/font&gt;" style="ellipse;whiteSpace=wrap;html=1;aspect=fixed;fillColor=light-dark(#ff0000, #ededed);fontSize=13;" vertex="1" parent="1">
          <mxGeometry x="-662.7410610932476" y="210.62499999999997" width="29.843247588424443" height="29.843247588424443" as="geometry" />
        </mxCell>
        <mxCell id="JNNgizCDDAsmNPhYfwY6-16" value="&lt;font style=&quot;font-size: 16px;&quot;&gt;F&lt;/font&gt;" style="ellipse;whiteSpace=wrap;html=1;aspect=fixed;fontSize=13;" vertex="1" parent="1">
          <mxGeometry x="-764.4130868167202" y="210.62499999999997" width="29.843247588424443" height="29.843247588424443" as="geometry" />
        </mxCell>
        <mxCell id="JNNgizCDDAsmNPhYfwY6-17" value="&lt;font style=&quot;font-size: 16px;&quot;&gt;H&lt;/font&gt;" style="ellipse;whiteSpace=wrap;html=1;aspect=fixed;fontSize=13;" vertex="1" parent="1">
          <mxGeometry x="-580.7474919614148" y="210.62499999999997" width="29.843247588424443" height="29.843247588424443" as="geometry" />
        </mxCell>
        <mxCell id="JNNgizCDDAsmNPhYfwY6-18" value="&lt;font style=&quot;font-size: 16px;&quot;&gt;G&lt;/font&gt;" style="ellipse;whiteSpace=wrap;html=1;aspect=fixed;fontSize=13;" vertex="1" parent="1">
          <mxGeometry x="-534.8310932475883" y="157.49999999999997" width="29.843247588424443" height="29.843247588424443" as="geometry" />
        </mxCell>
        <mxCell id="JNNgizCDDAsmNPhYfwY6-19" value="" style="endArrow=none;html=1;rounded=0;entryX=0.5;entryY=1;entryDx=0;entryDy=0;fontSize=13;" edge="1" parent="1" source="JNNgizCDDAsmNPhYfwY6-13" target="JNNgizCDDAsmNPhYfwY6-11">
          <mxGeometry width="50" height="50" relative="1" as="geometry">
            <mxPoint x="-279.01115755627006" y="657.5" as="sourcePoint" />
            <mxPoint x="-213.41630225080385" y="595" as="targetPoint" />
          </mxGeometry>
        </mxCell>
        <mxCell id="JNNgizCDDAsmNPhYfwY6-33" value="&lt;font style=&quot;font-size: 16px;&quot;&gt;0, 1, 2&lt;/font&gt;" style="edgeLabel;html=1;align=center;verticalAlign=middle;resizable=0;points=[];fontSize=13;" vertex="1" connectable="0" parent="JNNgizCDDAsmNPhYfwY6-19">
          <mxGeometry x="0.1385" relative="1" as="geometry">
            <mxPoint as="offset" />
          </mxGeometry>
        </mxCell>
        <mxCell id="JNNgizCDDAsmNPhYfwY6-21" value="" style="endArrow=none;html=1;rounded=0;entryX=1;entryY=0.5;entryDx=0;entryDy=0;exitX=0;exitY=0.5;exitDx=0;exitDy=0;fontSize=13;" edge="1" parent="1" source="JNNgizCDDAsmNPhYfwY6-11" target="JNNgizCDDAsmNPhYfwY6-3">
          <mxGeometry width="50" height="50" relative="1" as="geometry">
            <mxPoint x="-606.9854340836013" y="307.5" as="sourcePoint" />
            <mxPoint x="-541.390578778135" y="245" as="targetPoint" />
          </mxGeometry>
        </mxCell>
        <mxCell id="JNNgizCDDAsmNPhYfwY6-31" value="&lt;font style=&quot;font-size: 16px;&quot;&gt;0&lt;/font&gt;" style="edgeLabel;html=1;align=center;verticalAlign=middle;resizable=0;points=[];fontSize=13;" vertex="1" connectable="0" parent="JNNgizCDDAsmNPhYfwY6-21">
          <mxGeometry x="0.0121" relative="1" as="geometry">
            <mxPoint as="offset" />
          </mxGeometry>
        </mxCell>
        <mxCell id="JNNgizCDDAsmNPhYfwY6-22" value="" style="endArrow=none;html=1;rounded=0;entryX=0.5;entryY=0;entryDx=0;entryDy=0;exitX=0.5;exitY=1;exitDx=0;exitDy=0;fontSize=13;" edge="1" parent="1" source="JNNgizCDDAsmNPhYfwY6-13" target="JNNgizCDDAsmNPhYfwY6-14">
          <mxGeometry width="50" height="50" relative="1" as="geometry">
            <mxPoint x="-620.1044051446945" y="155" as="sourcePoint" />
            <mxPoint x="-620.1044051446945" y="145" as="targetPoint" />
          </mxGeometry>
        </mxCell>
        <mxCell id="JNNgizCDDAsmNPhYfwY6-39" value="&lt;font style=&quot;font-size: 16px;&quot;&gt;1, 2&lt;/font&gt;" style="edgeLabel;html=1;align=center;verticalAlign=middle;resizable=0;points=[];fontSize=13;" vertex="1" connectable="0" parent="JNNgizCDDAsmNPhYfwY6-22">
          <mxGeometry x="-0.2073" y="-1" relative="1" as="geometry">
            <mxPoint as="offset" />
          </mxGeometry>
        </mxCell>
        <mxCell id="JNNgizCDDAsmNPhYfwY6-23" value="" style="endArrow=none;html=1;rounded=0;exitX=0.5;exitY=0;exitDx=0;exitDy=0;entryX=0.5;entryY=1;entryDx=0;entryDy=0;fontSize=13;" edge="1" parent="1" source="JNNgizCDDAsmNPhYfwY6-16" target="JNNgizCDDAsmNPhYfwY6-3">
          <mxGeometry width="50" height="50" relative="1" as="geometry">
            <mxPoint x="-748.2767524115757" y="167.5" as="sourcePoint" />
            <mxPoint x="-751.294115755627" y="132.5" as="targetPoint" />
          </mxGeometry>
        </mxCell>
        <mxCell id="JNNgizCDDAsmNPhYfwY6-37" value="&lt;font style=&quot;font-size: 16px;&quot;&gt;1, 2&lt;/font&gt;" style="edgeLabel;html=1;align=center;verticalAlign=middle;resizable=0;points=[];fontSize=13;" vertex="1" connectable="0" parent="JNNgizCDDAsmNPhYfwY6-23">
          <mxGeometry x="0.0544" y="-1" relative="1" as="geometry">
            <mxPoint as="offset" />
          </mxGeometry>
        </mxCell>
        <mxCell id="JNNgizCDDAsmNPhYfwY6-24" value="" style="endArrow=none;html=1;rounded=0;entryX=0;entryY=0.5;entryDx=0;entryDy=0;exitX=1;exitY=0.5;exitDx=0;exitDy=0;fontSize=13;" edge="1" parent="1" source="JNNgizCDDAsmNPhYfwY6-16" target="JNNgizCDDAsmNPhYfwY6-14">
          <mxGeometry width="50" height="50" relative="1" as="geometry">
            <mxPoint x="-698.818231511254" y="217.49999999999997" as="sourcePoint" />
            <mxPoint x="-698.818231511254" y="176.24999999999997" as="targetPoint" />
          </mxGeometry>
        </mxCell>
        <mxCell id="JNNgizCDDAsmNPhYfwY6-35" value="&lt;font style=&quot;font-size: 16px;&quot;&gt;0&lt;/font&gt;" style="edgeLabel;html=1;align=center;verticalAlign=middle;resizable=0;points=[];fontSize=13;" vertex="1" connectable="0" parent="JNNgizCDDAsmNPhYfwY6-24">
          <mxGeometry x="-0.04" y="-1" relative="1" as="geometry">
            <mxPoint as="offset" />
          </mxGeometry>
        </mxCell>
        <mxCell id="JNNgizCDDAsmNPhYfwY6-25" value="" style="endArrow=none;html=1;rounded=0;entryX=0.984;entryY=0.776;entryDx=0;entryDy=0;entryPerimeter=0;exitX=0;exitY=0.5;exitDx=0;exitDy=0;fontSize=13;" edge="1" parent="1" source="JNNgizCDDAsmNPhYfwY6-13" target="JNNgizCDDAsmNPhYfwY6-3">
          <mxGeometry width="50" height="50" relative="1" as="geometry">
            <mxPoint x="-711.9372025723472" y="176.24999999999997" as="sourcePoint" />
            <mxPoint x="-711.9372025723472" y="135" as="targetPoint" />
          </mxGeometry>
        </mxCell>
        <mxCell id="JNNgizCDDAsmNPhYfwY6-32" value="&lt;font style=&quot;font-size: 16px;&quot;&gt;0&lt;/font&gt;" style="edgeLabel;html=1;align=center;verticalAlign=middle;resizable=0;points=[];fontSize=13;" vertex="1" connectable="0" parent="JNNgizCDDAsmNPhYfwY6-25">
          <mxGeometry x="0.0733" y="-1" relative="1" as="geometry">
            <mxPoint as="offset" />
          </mxGeometry>
        </mxCell>
        <mxCell id="JNNgizCDDAsmNPhYfwY6-26" value="" style="endArrow=none;html=1;rounded=0;entryX=1;entryY=0.5;entryDx=0;entryDy=0;exitX=0.04;exitY=0.28;exitDx=0;exitDy=0;exitPerimeter=0;fontSize=13;" edge="1" parent="1" source="JNNgizCDDAsmNPhYfwY6-12" target="JNNgizCDDAsmNPhYfwY6-11">
          <mxGeometry width="50" height="50" relative="1" as="geometry">
            <mxPoint x="-606.9854340836013" y="126.25" as="sourcePoint" />
            <mxPoint x="-606.9854340836013" y="85" as="targetPoint" />
          </mxGeometry>
        </mxCell>
        <mxCell id="JNNgizCDDAsmNPhYfwY6-38" value="&lt;font style=&quot;font-size: 16px;&quot;&gt;2, 3&lt;/font&gt;" style="edgeLabel;html=1;align=center;verticalAlign=middle;resizable=0;points=[];fontSize=13;" vertex="1" connectable="0" parent="JNNgizCDDAsmNPhYfwY6-26">
          <mxGeometry x="0.0998" y="-1" relative="1" as="geometry">
            <mxPoint as="offset" />
          </mxGeometry>
        </mxCell>
        <mxCell id="JNNgizCDDAsmNPhYfwY6-27" value="" style="endArrow=none;html=1;rounded=0;entryX=0.056;entryY=0.792;entryDx=0;entryDy=0;entryPerimeter=0;exitX=1;exitY=0.5;exitDx=0;exitDy=0;fontSize=13;" edge="1" parent="1" source="JNNgizCDDAsmNPhYfwY6-13" target="JNNgizCDDAsmNPhYfwY6-12">
          <mxGeometry width="50" height="50" relative="1" as="geometry">
            <mxPoint x="-554.5095498392283" y="217.49999999999997" as="sourcePoint" />
            <mxPoint x="-554.5095498392283" y="176.24999999999997" as="targetPoint" />
          </mxGeometry>
        </mxCell>
        <mxCell id="JNNgizCDDAsmNPhYfwY6-34" value="&lt;div&gt;&lt;font style=&quot;font-size: 16px;&quot;&gt;0, 1&lt;/font&gt;&lt;/div&gt;" style="edgeLabel;html=1;align=center;verticalAlign=middle;resizable=0;points=[];fontSize=13;" vertex="1" connectable="0" parent="JNNgizCDDAsmNPhYfwY6-27">
          <mxGeometry x="0.2195" relative="1" as="geometry">
            <mxPoint as="offset" />
          </mxGeometry>
        </mxCell>
        <mxCell id="JNNgizCDDAsmNPhYfwY6-28" value="" style="endArrow=none;html=1;rounded=0;exitX=0.5;exitY=0;exitDx=0;exitDy=0;entryX=1;entryY=1;entryDx=0;entryDy=0;fontSize=13;" edge="1" parent="1" source="JNNgizCDDAsmNPhYfwY6-18" target="JNNgizCDDAsmNPhYfwY6-12">
          <mxGeometry width="50" height="50" relative="1" as="geometry">
            <mxPoint x="-551.4921864951768" y="170.625" as="sourcePoint" />
            <mxPoint x="-534.8310932475883" y="121.25" as="targetPoint" />
          </mxGeometry>
        </mxCell>
        <mxCell id="JNNgizCDDAsmNPhYfwY6-40" value="&lt;font style=&quot;font-size: 16px;&quot;&gt;1&lt;/font&gt;" style="edgeLabel;html=1;align=center;verticalAlign=middle;resizable=0;points=[];fontSize=13;" vertex="1" connectable="0" parent="JNNgizCDDAsmNPhYfwY6-28">
          <mxGeometry x="0.1212" relative="1" as="geometry">
            <mxPoint as="offset" />
          </mxGeometry>
        </mxCell>
        <mxCell id="JNNgizCDDAsmNPhYfwY6-30" value="" style="endArrow=none;html=1;rounded=0;entryX=0;entryY=1;entryDx=0;entryDy=0;exitX=1;exitY=0;exitDx=0;exitDy=0;fontSize=13;" edge="1" parent="1" source="JNNgizCDDAsmNPhYfwY6-17" target="JNNgizCDDAsmNPhYfwY6-18">
          <mxGeometry width="50" height="50" relative="1" as="geometry">
            <mxPoint x="-528.2716077170418" y="242.5" as="sourcePoint" />
            <mxPoint x="-528.2716077170418" y="201.25" as="targetPoint" />
          </mxGeometry>
        </mxCell>
        <mxCell id="JNNgizCDDAsmNPhYfwY6-36" value="&lt;font style=&quot;font-size: 16px;&quot;&gt;0&lt;/font&gt;" style="edgeLabel;html=1;align=center;verticalAlign=middle;resizable=0;points=[];fontSize=13;" vertex="1" connectable="0" parent="JNNgizCDDAsmNPhYfwY6-30">
          <mxGeometry x="-0.0293" y="-2" relative="1" as="geometry">
            <mxPoint as="offset" />
          </mxGeometry>
        </mxCell>
        <mxCell id="JNNgizCDDAsmNPhYfwY6-130" value="&lt;font style=&quot;font-size: 16px;&quot;&gt;&lt;b&gt;Temporal graph snapshots (2.3)&lt;/b&gt;&lt;/font&gt;" style="rounded=0;whiteSpace=wrap;html=1;verticalAlign=top;fontSize=13;" vertex="1" parent="1">
          <mxGeometry x="-469.9988102893891" y="20" width="652.6688102893892" height="250" as="geometry" />
        </mxCell>
        <mxCell id="JNNgizCDDAsmNPhYfwY6-43" value="" style="rounded=0;whiteSpace=wrap;html=1;fontStyle=1;align=center;verticalAlign=top;fillColor=#dae8fc;strokeColor=#6c8ebf;fontSize=13;" vertex="1" parent="1">
          <mxGeometry x="-443.76086816720255" y="54.37499999999999" width="183.66559485530544" height="162.5" as="geometry" />
        </mxCell>
        <mxCell id="JNNgizCDDAsmNPhYfwY6-45" value="B" style="ellipse;whiteSpace=wrap;html=1;aspect=fixed;fillColor=light-dark(#ff0000, #ededed);fontSize=13;" vertex="1" parent="1">
          <mxGeometry x="-361.7672990353697" y="70" width="17.905948553054664" height="17.905948553054664" as="geometry" />
        </mxCell>
        <mxCell id="JNNgizCDDAsmNPhYfwY6-44" value="A" style="ellipse;whiteSpace=wrap;html=1;aspect=fixed;fillColor=#FF0000;fontSize=13;" vertex="1" parent="1">
          <mxGeometry x="-417.522926045016" y="95.00000000000001" width="17.905948553054664" height="17.905948553054664" as="geometry" />
        </mxCell>
        <mxCell id="JNNgizCDDAsmNPhYfwY6-46" value="C" style="ellipse;whiteSpace=wrap;html=1;aspect=fixed;fillColor=light-dark(#ff0000, #ededed);fontSize=13;" vertex="1" parent="1">
          <mxGeometry x="-312.57115755627007" y="95.00000000000001" width="17.905948553054664" height="17.905948553054664" as="geometry" />
        </mxCell>
        <mxCell id="JNNgizCDDAsmNPhYfwY6-49" value="F" style="ellipse;whiteSpace=wrap;html=1;aspect=fixed;fontSize=13;" vertex="1" parent="1">
          <mxGeometry x="-417.522926045016" y="176.24999999999997" width="17.905948553054664" height="17.905948553054664" as="geometry" />
        </mxCell>
        <mxCell id="JNNgizCDDAsmNPhYfwY6-133" value="&lt;div&gt;E&lt;/div&gt;" style="ellipse;whiteSpace=wrap;html=1;aspect=fixed;fillColor=light-dark(#00ff00, #ededed);fontSize=13;" vertex="1" parent="1">
          <mxGeometry x="-361.7672990353697" y="126.25" width="17.905948553054664" height="17.905948553054664" as="geometry" />
        </mxCell>
        <mxCell id="JNNgizCDDAsmNPhYfwY6-48" value="D" style="ellipse;whiteSpace=wrap;html=1;aspect=fixed;fillColor=light-dark(#ffffff, #ededed);fontSize=13;" vertex="1" parent="1">
          <mxGeometry x="-361.7672990353697" y="176.24999999999997" width="17.905948553054664" height="17.905948553054664" as="geometry" />
        </mxCell>
        <mxCell id="JNNgizCDDAsmNPhYfwY6-50" value="G" style="ellipse;whiteSpace=wrap;html=1;aspect=fixed;fontSize=13;" vertex="1" parent="1">
          <mxGeometry x="-292.89270096463025" y="141.875" width="17.905948553054664" height="17.905948553054664" as="geometry" />
        </mxCell>
        <mxCell id="JNNgizCDDAsmNPhYfwY6-51" value="H" style="ellipse;whiteSpace=wrap;html=1;aspect=fixed;fontSize=13;" vertex="1" parent="1">
          <mxGeometry x="-316.506848874598" y="176.24999999999997" width="17.905948553054664" height="17.905948553054664" as="geometry" />
        </mxCell>
        <mxCell id="JNNgizCDDAsmNPhYfwY6-139" value="" style="endArrow=none;html=1;rounded=0;entryX=0.5;entryY=1;entryDx=0;entryDy=0;exitX=0.5;exitY=0;exitDx=0;exitDy=0;fontSize=13;" edge="1" parent="1" source="JNNgizCDDAsmNPhYfwY6-133" target="JNNgizCDDAsmNPhYfwY6-45">
          <mxGeometry width="50" height="50" relative="1" as="geometry">
            <mxPoint x="-496.23675241157554" y="154.37500000000003" as="sourcePoint" />
            <mxPoint x="-430.6418971061093" y="91.875" as="targetPoint" />
          </mxGeometry>
        </mxCell>
        <mxCell id="JNNgizCDDAsmNPhYfwY6-141" value="" style="endArrow=none;html=1;rounded=0;entryX=1;entryY=1;entryDx=0;entryDy=0;exitX=0;exitY=0.5;exitDx=0;exitDy=0;fontSize=13;" edge="1" parent="1" source="JNNgizCDDAsmNPhYfwY6-133" target="JNNgizCDDAsmNPhYfwY6-44">
          <mxGeometry width="50" height="50" relative="1" as="geometry">
            <mxPoint x="-496.23675241157554" y="154.37500000000003" as="sourcePoint" />
            <mxPoint x="-430.6418971061093" y="91.875" as="targetPoint" />
          </mxGeometry>
        </mxCell>
        <mxCell id="JNNgizCDDAsmNPhYfwY6-144" value="" style="endArrow=none;html=1;rounded=0;entryX=0;entryY=1;entryDx=0;entryDy=0;exitX=1;exitY=0.5;exitDx=0;exitDy=0;fontSize=13;" edge="1" parent="1" source="JNNgizCDDAsmNPhYfwY6-133" target="JNNgizCDDAsmNPhYfwY6-46">
          <mxGeometry width="50" height="50" relative="1" as="geometry">
            <mxPoint x="-404.40395498392286" y="166.875" as="sourcePoint" />
            <mxPoint x="-338.80909967845656" y="104.375" as="targetPoint" />
          </mxGeometry>
        </mxCell>
        <mxCell id="JNNgizCDDAsmNPhYfwY6-187" value="" style="rounded=0;whiteSpace=wrap;html=1;fontStyle=1;align=center;verticalAlign=top;fillColor=#dae8fc;strokeColor=#6c8ebf;fontSize=13;" vertex="1" parent="1">
          <mxGeometry x="-233.8573311897106" y="54.37499999999999" width="183.66559485530544" height="162.5" as="geometry" />
        </mxCell>
        <mxCell id="JNNgizCDDAsmNPhYfwY6-188" value="B" style="ellipse;whiteSpace=wrap;html=1;aspect=fixed;fillColor=light-dark(#ff0000, #ededed);fontSize=13;" vertex="1" parent="1">
          <mxGeometry x="-151.8637620578779" y="70" width="17.905948553054664" height="17.905948553054664" as="geometry" />
        </mxCell>
        <mxCell id="JNNgizCDDAsmNPhYfwY6-189" value="A" style="ellipse;whiteSpace=wrap;html=1;aspect=fixed;fillColor=#FFFFFF;fontSize=13;" vertex="1" parent="1">
          <mxGeometry x="-207.6193890675241" y="95.00000000000001" width="17.905948553054664" height="17.905948553054664" as="geometry" />
        </mxCell>
        <mxCell id="JNNgizCDDAsmNPhYfwY6-190" value="C" style="ellipse;whiteSpace=wrap;html=1;aspect=fixed;fillColor=light-dark(#ff0000, #ededed);fontSize=13;" vertex="1" parent="1">
          <mxGeometry x="-102.66762057877824" y="95.00000000000001" width="17.905948553054664" height="17.905948553054664" as="geometry" />
        </mxCell>
        <mxCell id="JNNgizCDDAsmNPhYfwY6-191" value="F" style="ellipse;whiteSpace=wrap;html=1;aspect=fixed;fontSize=13;" vertex="1" parent="1">
          <mxGeometry x="-207.6193890675241" y="176.24999999999997" width="17.905948553054664" height="17.905948553054664" as="geometry" />
        </mxCell>
        <mxCell id="JNNgizCDDAsmNPhYfwY6-192" value="&lt;div&gt;E&lt;/div&gt;" style="ellipse;whiteSpace=wrap;html=1;aspect=fixed;fillColor=light-dark(#00ff00, #ededed);fontSize=13;" vertex="1" parent="1">
          <mxGeometry x="-151.8637620578779" y="126.25" width="17.905948553054664" height="17.905948553054664" as="geometry" />
        </mxCell>
        <mxCell id="JNNgizCDDAsmNPhYfwY6-193" value="D" style="ellipse;whiteSpace=wrap;html=1;aspect=fixed;fillColor=light-dark(#ff0000, #ededed);fontSize=13;" vertex="1" parent="1">
          <mxGeometry x="-151.8637620578779" y="176.24999999999997" width="17.905948553054664" height="17.905948553054664" as="geometry" />
        </mxCell>
        <mxCell id="JNNgizCDDAsmNPhYfwY6-194" value="G" style="ellipse;whiteSpace=wrap;html=1;aspect=fixed;fontSize=13;" vertex="1" parent="1">
          <mxGeometry x="-82.98916398713831" y="141.875" width="17.905948553054664" height="17.905948553054664" as="geometry" />
        </mxCell>
        <mxCell id="JNNgizCDDAsmNPhYfwY6-195" value="H" style="ellipse;whiteSpace=wrap;html=1;aspect=fixed;fontSize=13;" vertex="1" parent="1">
          <mxGeometry x="-106.60331189710618" y="176.24999999999997" width="17.905948553054664" height="17.905948553054664" as="geometry" />
        </mxCell>
        <mxCell id="JNNgizCDDAsmNPhYfwY6-196" value="" style="endArrow=none;html=1;rounded=0;entryX=0.5;entryY=1;entryDx=0;entryDy=0;exitX=0.5;exitY=0;exitDx=0;exitDy=0;fontSize=13;" edge="1" parent="1" source="JNNgizCDDAsmNPhYfwY6-192" target="JNNgizCDDAsmNPhYfwY6-188">
          <mxGeometry width="50" height="50" relative="1" as="geometry">
            <mxPoint x="-286.33321543408357" y="154.37500000000003" as="sourcePoint" />
            <mxPoint x="-220.73836012861736" y="91.875" as="targetPoint" />
          </mxGeometry>
        </mxCell>
        <mxCell id="JNNgizCDDAsmNPhYfwY6-197" value="" style="endArrow=none;html=1;rounded=0;entryX=0.5;entryY=0;entryDx=0;entryDy=0;exitX=0.5;exitY=1;exitDx=0;exitDy=0;fontSize=13;" edge="1" parent="1" source="JNNgizCDDAsmNPhYfwY6-192" target="JNNgizCDDAsmNPhYfwY6-193">
          <mxGeometry width="50" height="50" relative="1" as="geometry">
            <mxPoint x="-286.33321543408357" y="154.37500000000003" as="sourcePoint" />
            <mxPoint x="-220.73836012861736" y="91.875" as="targetPoint" />
          </mxGeometry>
        </mxCell>
        <mxCell id="JNNgizCDDAsmNPhYfwY6-201" value="" style="endArrow=none;html=1;rounded=0;entryX=0;entryY=1;entryDx=0;entryDy=0;exitX=1;exitY=0.5;exitDx=0;exitDy=0;fontSize=13;" edge="1" parent="1" source="JNNgizCDDAsmNPhYfwY6-192" target="JNNgizCDDAsmNPhYfwY6-190">
          <mxGeometry width="50" height="50" relative="1" as="geometry">
            <mxPoint x="-194.50041800643086" y="166.875" as="sourcePoint" />
            <mxPoint x="-128.90556270096474" y="104.375" as="targetPoint" />
          </mxGeometry>
        </mxCell>
        <mxCell id="JNNgizCDDAsmNPhYfwY6-206" value="" style="rounded=0;whiteSpace=wrap;html=1;fontStyle=1;align=center;verticalAlign=top;fillColor=#dae8fc;strokeColor=#6c8ebf;fontSize=13;" vertex="1" parent="1">
          <mxGeometry x="-23.953794212218625" y="54.37499999999999" width="183.66559485530544" height="162.5" as="geometry" />
        </mxCell>
        <mxCell id="JNNgizCDDAsmNPhYfwY6-207" value="B" style="ellipse;whiteSpace=wrap;html=1;aspect=fixed;fillColor=light-dark(#ff0000, #ededed);fontSize=13;" vertex="1" parent="1">
          <mxGeometry x="58.03977491961408" y="70" width="17.905948553054664" height="17.905948553054664" as="geometry" />
        </mxCell>
        <mxCell id="JNNgizCDDAsmNPhYfwY6-208" value="A" style="ellipse;whiteSpace=wrap;html=1;aspect=fixed;fillColor=light-dark(#ffffff, #ff9090);fontSize=13;" vertex="1" parent="1">
          <mxGeometry x="2.2841479099679827" y="95.00000000000001" width="17.905948553054664" height="17.905948553054664" as="geometry" />
        </mxCell>
        <mxCell id="JNNgizCDDAsmNPhYfwY6-209" value="C" style="ellipse;whiteSpace=wrap;html=1;aspect=fixed;fillColor=light-dark(#ffffff, #ededed);fontSize=13;" vertex="1" parent="1">
          <mxGeometry x="107.23591639871384" y="95.00000000000001" width="17.905948553054664" height="17.905948553054664" as="geometry" />
        </mxCell>
        <mxCell id="JNNgizCDDAsmNPhYfwY6-210" value="F" style="ellipse;whiteSpace=wrap;html=1;aspect=fixed;fontSize=13;" vertex="1" parent="1">
          <mxGeometry x="2.2841479099679827" y="176.24999999999997" width="17.905948553054664" height="17.905948553054664" as="geometry" />
        </mxCell>
        <mxCell id="JNNgizCDDAsmNPhYfwY6-211" value="&lt;div&gt;E&lt;/div&gt;" style="ellipse;whiteSpace=wrap;html=1;aspect=fixed;fillColor=light-dark(#00ff00, #ededed);fontSize=13;" vertex="1" parent="1">
          <mxGeometry x="58.03977491961408" y="126.25" width="17.905948553054664" height="17.905948553054664" as="geometry" />
        </mxCell>
        <mxCell id="JNNgizCDDAsmNPhYfwY6-212" value="D" style="ellipse;whiteSpace=wrap;html=1;aspect=fixed;fillColor=light-dark(#ff0000, #ededed);fontSize=13;" vertex="1" parent="1">
          <mxGeometry x="58.03977491961408" y="176.24999999999997" width="17.905948553054664" height="17.905948553054664" as="geometry" />
        </mxCell>
        <mxCell id="JNNgizCDDAsmNPhYfwY6-213" value="G" style="ellipse;whiteSpace=wrap;html=1;aspect=fixed;fontSize=13;" vertex="1" parent="1">
          <mxGeometry x="126.91437299035377" y="141.875" width="17.905948553054664" height="17.905948553054664" as="geometry" />
        </mxCell>
        <mxCell id="JNNgizCDDAsmNPhYfwY6-214" value="H" style="ellipse;whiteSpace=wrap;html=1;aspect=fixed;fontSize=13;" vertex="1" parent="1">
          <mxGeometry x="103.30022508038579" y="176.24999999999997" width="17.905948553054664" height="17.905948553054664" as="geometry" />
        </mxCell>
        <mxCell id="JNNgizCDDAsmNPhYfwY6-215" value="" style="endArrow=none;html=1;rounded=0;entryX=0.5;entryY=1;entryDx=0;entryDy=0;exitX=0.5;exitY=0;exitDx=0;exitDy=0;fontSize=13;" edge="1" parent="1" source="JNNgizCDDAsmNPhYfwY6-211" target="JNNgizCDDAsmNPhYfwY6-207">
          <mxGeometry width="50" height="50" relative="1" as="geometry">
            <mxPoint x="-76.42967845659173" y="154.37500000000003" as="sourcePoint" />
            <mxPoint x="-10.834823151125493" y="91.875" as="targetPoint" />
          </mxGeometry>
        </mxCell>
        <mxCell id="JNNgizCDDAsmNPhYfwY6-216" value="" style="endArrow=none;html=1;rounded=0;entryX=0.5;entryY=0;entryDx=0;entryDy=0;exitX=0.5;exitY=1;exitDx=0;exitDy=0;fontSize=13;" edge="1" parent="1" source="JNNgizCDDAsmNPhYfwY6-211" target="JNNgizCDDAsmNPhYfwY6-212">
          <mxGeometry width="50" height="50" relative="1" as="geometry">
            <mxPoint x="-76.42967845659173" y="154.37500000000003" as="sourcePoint" />
            <mxPoint x="-10.834823151125493" y="91.875" as="targetPoint" />
          </mxGeometry>
        </mxCell>
        <mxCell id="JNNgizCDDAsmNPhYfwY6-225" value="" style="endArrow=classic;html=1;rounded=0;fontColor=light-dark(#808080,#EDEDED);entryX=-0.01;entryY=0.433;entryDx=0;entryDy=0;entryPerimeter=0;strokeWidth=2;fontSize=13;" edge="1" parent="1">
          <mxGeometry width="50" height="50" relative="1" as="geometry">
            <mxPoint x="-443.76086816720255" y="250.9625" as="sourcePoint" />
            <mxPoint x="93.46099678456599" y="250.95000000000002" as="targetPoint" />
          </mxGeometry>
        </mxCell>
        <mxCell id="JNNgizCDDAsmNPhYfwY6-227" value="&lt;b&gt;Time&lt;/b&gt;" style="text;html=1;align=center;verticalAlign=middle;resizable=0;points=[];autosize=1;strokeColor=none;fillColor=none;fontSize=13;" vertex="1" parent="1">
          <mxGeometry x="94.1169453376207" y="232.5" width="50" height="30" as="geometry" />
        </mxCell>
        <mxCell id="JNNgizCDDAsmNPhYfwY6-229" value="&lt;font style=&quot;font-size: 16px;&quot;&gt;Egocentric Temporal Neighborhood (2.4)&lt;/font&gt;" style="rounded=0;whiteSpace=wrap;html=1;fontStyle=1;align=center;verticalAlign=top;fontSize=13;" vertex="1" parent="1">
          <mxGeometry x="-748.8632475884244" y="290.00000000000006" width="314.85530546623795" height="250" as="geometry" />
        </mxCell>
        <mxCell id="JNNgizCDDAsmNPhYfwY6-230" value="E" style="ellipse;whiteSpace=wrap;html=1;aspect=fixed;fillColor=light-dark(#00ff00, #ededed);strokeColor=#000000;gradientColor=none;fontSize=16;" vertex="1" parent="1">
          <mxGeometry x="-709.5063344051447" y="399.375" width="29.843247588424443" height="29.843247588424443" as="geometry" />
        </mxCell>
        <mxCell id="JNNgizCDDAsmNPhYfwY6-231" value="E" style="ellipse;whiteSpace=wrap;html=1;aspect=fixed;fillColor=light-dark(#00ff00, #ededed);strokeColor=#000000;gradientColor=none;fontSize=16;" vertex="1" parent="1">
          <mxGeometry x="-607.834308681672" y="399.375" width="29.843247588424443" height="29.843247588424443" as="geometry" />
        </mxCell>
        <mxCell id="JNNgizCDDAsmNPhYfwY6-232" value="E" style="ellipse;whiteSpace=wrap;html=1;aspect=fixed;fillColor=light-dark(#00ff00, #ededed);strokeColor=#000000;gradientColor=none;fontSize=16;" vertex="1" parent="1">
          <mxGeometry x="-512.721768488746" y="399.375" width="29.843247588424443" height="29.843247588424443" as="geometry" />
        </mxCell>
        <mxCell id="JNNgizCDDAsmNPhYfwY6-233" value="" style="endArrow=classic;html=1;rounded=0;entryX=0.024;entryY=0.509;entryDx=0;entryDy=0;entryPerimeter=0;strokeWidth=2;fontSize=13;" edge="1" parent="1">
          <mxGeometry width="50" height="50" relative="1" as="geometry">
            <mxPoint x="-735.8098713826366" y="520.7250000000001" as="sourcePoint" />
            <mxPoint x="-473.10247588424437" y="521.5875000000001" as="targetPoint" />
          </mxGeometry>
        </mxCell>
        <mxCell id="JNNgizCDDAsmNPhYfwY6-238" value="" style="endArrow=none;dashed=1;html=1;rounded=1;exitX=1;exitY=0.5;exitDx=0;exitDy=0;entryX=0;entryY=0.5;entryDx=0;entryDy=0;fontColor=light-dark(#00FF00,#EDEDED);fillColor=#d5e8d4;strokeColor=#00FF00;strokeWidth=2;curved=0;targetPerimeterSpacing=0;jumpStyle=none;shadow=0;flowAnimation=0;fontSize=13;" edge="1" parent="1" source="JNNgizCDDAsmNPhYfwY6-230" target="JNNgizCDDAsmNPhYfwY6-231">
          <mxGeometry width="50" height="50" relative="1" as="geometry">
            <mxPoint x="-578.3166237942122" y="240" as="sourcePoint" />
            <mxPoint x="-512.721768488746" y="177.5" as="targetPoint" />
            <Array as="points">
              <mxPoint x="-657.0304501607717" y="427.50000000000006" />
              <mxPoint x="-630.7925080385852" y="427.50000000000006" />
            </Array>
          </mxGeometry>
        </mxCell>
        <mxCell id="JNNgizCDDAsmNPhYfwY6-243" value="" style="endArrow=none;dashed=1;html=1;rounded=1;exitX=1;exitY=0.5;exitDx=0;exitDy=0;entryX=0;entryY=0.5;entryDx=0;entryDy=0;fontColor=light-dark(#00FF00,#EDEDED);fillColor=#d5e8d4;strokeColor=#00FF00;strokeWidth=2;curved=0;fontSize=13;" edge="1" parent="1" source="JNNgizCDDAsmNPhYfwY6-231" target="JNNgizCDDAsmNPhYfwY6-232">
          <mxGeometry width="50" height="50" relative="1" as="geometry">
            <mxPoint x="-575.0368810289389" y="418.125" as="sourcePoint" />
            <mxPoint x="-505.50633440514474" y="418.125" as="targetPoint" />
            <Array as="points">
              <mxPoint x="-553.390578778135" y="427.50000000000006" />
              <mxPoint x="-527.1526366559485" y="427.50000000000006" />
            </Array>
          </mxGeometry>
        </mxCell>
        <mxCell id="JNNgizCDDAsmNPhYfwY6-244" value="B" style="ellipse;whiteSpace=wrap;html=1;aspect=fixed;fillColor=light-dark(#ff0000, #ededed);fontSize=16;" vertex="1" parent="1">
          <mxGeometry x="-709.5063344051447" y="327.5" width="29.843247588424443" height="29.843247588424443" as="geometry" />
        </mxCell>
        <mxCell id="JNNgizCDDAsmNPhYfwY6-245" value="B" style="ellipse;whiteSpace=wrap;html=1;aspect=fixed;fillColor=light-dark(#ff0000, #ededed);fontSize=16;" vertex="1" parent="1">
          <mxGeometry x="-512.721768488746" y="327.5" width="29.843247588424443" height="29.843247588424443" as="geometry" />
        </mxCell>
        <mxCell id="JNNgizCDDAsmNPhYfwY6-246" value="D" style="ellipse;whiteSpace=wrap;html=1;aspect=fixed;fillColor=light-dark(#ff0000, #ededed);fontSize=16;" vertex="1" parent="1">
          <mxGeometry x="-640.6317363344051" y="452.5" width="29.843247588424443" height="29.843247588424443" as="geometry" />
        </mxCell>
        <mxCell id="JNNgizCDDAsmNPhYfwY6-248" value="D" style="ellipse;whiteSpace=wrap;html=1;aspect=fixed;fillColor=light-dark(#ff0000, #ededed);fontSize=16;" vertex="1" parent="1">
          <mxGeometry x="-545.5191961414791" y="452.5" width="29.843247588424443" height="29.843247588424443" as="geometry" />
        </mxCell>
        <mxCell id="JNNgizCDDAsmNPhYfwY6-249" value="C" style="ellipse;whiteSpace=wrap;html=1;aspect=fixed;fillColor=light-dark(#ff0000, #ededed);fontSize=16;" vertex="1" parent="1">
          <mxGeometry x="-657.0304501607717" y="358.75000000000006" width="29.843247588424443" height="29.843247588424443" as="geometry" />
        </mxCell>
        <mxCell id="JNNgizCDDAsmNPhYfwY6-250" value="C" style="ellipse;whiteSpace=wrap;html=1;aspect=fixed;fillColor=light-dark(#ff0000, #ededed);fontSize=16;" vertex="1" parent="1">
          <mxGeometry x="-558.6381672025723" y="358.75000000000006" width="29.843247588424443" height="29.843247588424443" as="geometry" />
        </mxCell>
        <mxCell id="JNNgizCDDAsmNPhYfwY6-251" value="A" style="ellipse;whiteSpace=wrap;html=1;aspect=fixed;fillColor=#FF0000;fontSize=16;" vertex="1" parent="1">
          <mxGeometry x="-742.3037620578777" y="368.12500000000006" width="29.843247588424443" height="29.843247588424443" as="geometry" />
        </mxCell>
        <mxCell id="JNNgizCDDAsmNPhYfwY6-252" value="" style="endArrow=none;html=1;rounded=0;entryX=0.5;entryY=1;entryDx=0;entryDy=0;exitX=0.5;exitY=0;exitDx=0;exitDy=0;fontSize=13;" edge="1" parent="1" source="JNNgizCDDAsmNPhYfwY6-230" target="JNNgizCDDAsmNPhYfwY6-244">
          <mxGeometry width="50" height="50" relative="1" as="geometry">
            <mxPoint x="-696.3873633440514" y="477.50000000000006" as="sourcePoint" />
            <mxPoint x="-630.7925080385852" y="415" as="targetPoint" />
          </mxGeometry>
        </mxCell>
        <mxCell id="JNNgizCDDAsmNPhYfwY6-253" value="" style="endArrow=none;html=1;rounded=0;entryX=0;entryY=1;entryDx=0;entryDy=0;exitX=1;exitY=0;exitDx=0;exitDy=0;fontSize=13;" edge="1" parent="1" source="JNNgizCDDAsmNPhYfwY6-230" target="JNNgizCDDAsmNPhYfwY6-249">
          <mxGeometry width="50" height="50" relative="1" as="geometry">
            <mxPoint x="-679.3327009646302" y="412.49999999999994" as="sourcePoint" />
            <mxPoint x="-679.3327009646302" y="371.24999999999994" as="targetPoint" />
          </mxGeometry>
        </mxCell>
        <mxCell id="JNNgizCDDAsmNPhYfwY6-254" value="" style="endArrow=none;html=1;rounded=0;entryX=1;entryY=1;entryDx=0;entryDy=0;exitX=0;exitY=0;exitDx=0;exitDy=0;fontSize=13;" edge="1" parent="1" source="JNNgizCDDAsmNPhYfwY6-230" target="JNNgizCDDAsmNPhYfwY6-251">
          <mxGeometry width="50" height="50" relative="1" as="geometry">
            <mxPoint x="-666.213729903537" y="425" as="sourcePoint" />
            <mxPoint x="-666.213729903537" y="383.75" as="targetPoint" />
          </mxGeometry>
        </mxCell>
        <mxCell id="JNNgizCDDAsmNPhYfwY6-255" value="" style="endArrow=none;html=1;rounded=0;entryX=0.5;entryY=1;entryDx=0;entryDy=0;exitX=0.5;exitY=0;exitDx=0;exitDy=0;fontSize=13;" edge="1" parent="1" source="JNNgizCDDAsmNPhYfwY6-246" target="JNNgizCDDAsmNPhYfwY6-231">
          <mxGeometry width="50" height="50" relative="1" as="geometry">
            <mxPoint x="-653.0947588424438" y="437.5" as="sourcePoint" />
            <mxPoint x="-653.0947588424438" y="396.25" as="targetPoint" />
          </mxGeometry>
        </mxCell>
        <mxCell id="JNNgizCDDAsmNPhYfwY6-256" value="" style="endArrow=none;html=1;rounded=0;entryX=0;entryY=1;entryDx=0;entryDy=0;exitX=1;exitY=0;exitDx=0;exitDy=0;fontSize=13;" edge="1" parent="1" source="JNNgizCDDAsmNPhYfwY6-231" target="JNNgizCDDAsmNPhYfwY6-250">
          <mxGeometry width="50" height="50" relative="1" as="geometry">
            <mxPoint x="-639.9757877813504" y="450" as="sourcePoint" />
            <mxPoint x="-639.9757877813504" y="408.75" as="targetPoint" />
          </mxGeometry>
        </mxCell>
        <mxCell id="JNNgizCDDAsmNPhYfwY6-257" value="" style="endArrow=none;html=1;rounded=0;entryX=0.5;entryY=1;entryDx=0;entryDy=0;exitX=0.5;exitY=0;exitDx=0;exitDy=0;fontSize=13;" edge="1" parent="1" source="JNNgizCDDAsmNPhYfwY6-232" target="JNNgizCDDAsmNPhYfwY6-245">
          <mxGeometry width="50" height="50" relative="1" as="geometry">
            <mxPoint x="-626.8568167202573" y="462.5" as="sourcePoint" />
            <mxPoint x="-626.8568167202573" y="421.25" as="targetPoint" />
          </mxGeometry>
        </mxCell>
        <mxCell id="JNNgizCDDAsmNPhYfwY6-258" value="" style="endArrow=none;html=1;rounded=0;entryX=0.5;entryY=1;entryDx=0;entryDy=0;exitX=0.5;exitY=0;exitDx=0;exitDy=0;fontSize=13;" edge="1" parent="1" source="JNNgizCDDAsmNPhYfwY6-248" target="JNNgizCDDAsmNPhYfwY6-232">
          <mxGeometry width="50" height="50" relative="1" as="geometry">
            <mxPoint x="-613.7378456591639" y="475" as="sourcePoint" />
            <mxPoint x="-613.7378456591639" y="433.75" as="targetPoint" />
          </mxGeometry>
        </mxCell>
        <mxCell id="JNNgizCDDAsmNPhYfwY6-264" value="B" style="ellipse;whiteSpace=wrap;html=1;aspect=fixed;fillColor=light-dark(#ff0000, #ededed);fontSize=16;" vertex="1" parent="1">
          <mxGeometry x="-607.834308681672" y="327.5" width="29.843247588424443" height="29.843247588424443" as="geometry" />
        </mxCell>
        <mxCell id="JNNgizCDDAsmNPhYfwY6-265" value="" style="endArrow=none;html=1;rounded=0;entryX=0.5;entryY=1;entryDx=0;entryDy=0;exitX=0.5;exitY=0;exitDx=0;exitDy=0;fontSize=13;" edge="1" parent="1" source="JNNgizCDDAsmNPhYfwY6-231" target="JNNgizCDDAsmNPhYfwY6-264">
          <mxGeometry width="50" height="50" relative="1" as="geometry">
            <mxPoint x="-604.5545659163987" y="377.49999999999994" as="sourcePoint" />
            <mxPoint x="-538.9597106109325" y="315" as="targetPoint" />
          </mxGeometry>
        </mxCell>
        <mxCell id="JNNgizCDDAsmNPhYfwY6-266" value="" style="endArrow=none;dashed=1;html=1;rounded=1;exitX=1;exitY=0.5;exitDx=0;exitDy=0;entryX=0;entryY=0.5;entryDx=0;entryDy=0;fontColor=light-dark(#00FF00,#EDEDED);fillColor=#d5e8d4;strokeColor=light-dark(#ff0000, #008f00);strokeWidth=2;curved=0;targetPerimeterSpacing=0;jumpStyle=none;shadow=0;flowAnimation=0;fontSize=13;" edge="1" parent="1" source="JNNgizCDDAsmNPhYfwY6-244" target="JNNgizCDDAsmNPhYfwY6-264">
          <mxGeometry width="50" height="50" relative="1" as="geometry">
            <mxPoint x="-676.7089067524116" y="343.74999999999994" as="sourcePoint" />
            <mxPoint x="-611.1140514469453" y="343.74999999999994" as="targetPoint" />
            <Array as="points">
              <mxPoint x="-657.0304501607717" y="352.5" />
              <mxPoint x="-633.4163022508038" y="352.5" />
            </Array>
          </mxGeometry>
        </mxCell>
        <mxCell id="JNNgizCDDAsmNPhYfwY6-268" value="" style="endArrow=none;dashed=1;html=1;rounded=1;exitX=1;exitY=0.5;exitDx=0;exitDy=0;entryX=0;entryY=0.5;entryDx=0;entryDy=0;fontColor=light-dark(#00FF00,#EDEDED);fillColor=#d5e8d4;strokeColor=light-dark(#ff0000, #008f00);strokeWidth=2;curved=0;targetPerimeterSpacing=0;jumpStyle=none;shadow=0;flowAnimation=0;fontSize=13;" edge="1" parent="1" source="JNNgizCDDAsmNPhYfwY6-264" target="JNNgizCDDAsmNPhYfwY6-245">
          <mxGeometry width="50" height="50" relative="1" as="geometry">
            <mxPoint x="-578.3166237942122" y="338.75" as="sourcePoint" />
            <mxPoint x="-508.7860771704181" y="338.75" as="targetPoint" />
            <Array as="points">
              <mxPoint x="-558.6381672025723" y="347.50000000000006" />
              <mxPoint x="-535.0240192926044" y="347.50000000000006" />
            </Array>
          </mxGeometry>
        </mxCell>
        <mxCell id="JNNgizCDDAsmNPhYfwY6-269" value="" style="endArrow=none;dashed=1;html=1;rounded=1;exitX=1;exitY=0.5;exitDx=0;exitDy=0;entryX=0;entryY=0.5;entryDx=0;entryDy=0;fontColor=light-dark(#00FF00,#EDEDED);fillColor=#d5e8d4;strokeColor=light-dark(#ff0000, #008f00);strokeWidth=2;curved=0;targetPerimeterSpacing=0;jumpStyle=none;shadow=0;flowAnimation=0;fontSize=13;" edge="1" parent="1" source="JNNgizCDDAsmNPhYfwY6-249" target="JNNgizCDDAsmNPhYfwY6-250">
          <mxGeometry width="50" height="50" relative="1" as="geometry">
            <mxPoint x="-622.9211254019292" y="377.49999999999994" as="sourcePoint" />
            <mxPoint x="-559.9500643086817" y="377.49999999999994" as="targetPoint" />
            <Array as="points">
              <mxPoint x="-605.866463022508" y="381.25" />
              <mxPoint x="-582.2523151125401" y="381.25" />
            </Array>
          </mxGeometry>
        </mxCell>
        <mxCell id="JNNgizCDDAsmNPhYfwY6-271" value="" style="endArrow=none;dashed=1;html=1;rounded=1;exitX=1;exitY=0.5;exitDx=0;exitDy=0;entryX=0;entryY=0.5;entryDx=0;entryDy=0;fontColor=light-dark(#00FF00,#EDEDED);fillColor=#d5e8d4;strokeColor=light-dark(#ff0000, #008f00);strokeWidth=2;curved=0;targetPerimeterSpacing=0;jumpStyle=none;shadow=0;flowAnimation=0;fontSize=13;" edge="1" parent="1" source="JNNgizCDDAsmNPhYfwY6-246" target="JNNgizCDDAsmNPhYfwY6-248">
          <mxGeometry width="50" height="50" relative="1" as="geometry">
            <mxPoint x="-607.834308681672" y="465.625" as="sourcePoint" />
            <mxPoint x="-544.8632475884244" y="465.625" as="targetPoint" />
            <Array as="points">
              <mxPoint x="-591.4355948553055" y="477.50000000000006" />
              <mxPoint x="-578.3166237942122" y="477.50000000000006" />
              <mxPoint x="-565.197652733119" y="477.50000000000006" />
            </Array>
          </mxGeometry>
        </mxCell>
        <mxCell id="JNNgizCDDAsmNPhYfwY6-276" value="&lt;div&gt;&lt;br&gt;&lt;/div&gt;" style="rounded=0;whiteSpace=wrap;html=1;verticalAlign=top;fontSize=13;" vertex="1" parent="1">
          <mxGeometry x="-413.2710289389068" y="290.00000000000006" width="537.8778135048232" height="250" as="geometry" />
        </mxCell>
        <mxCell id="JNNgizCDDAsmNPhYfwY6-278" value="&lt;font style=&quot;font-size: 16px;&quot;&gt;A&lt;/font&gt;" style="ellipse;whiteSpace=wrap;html=1;aspect=fixed;fillColor=#FF0000;fontSize=13;" vertex="1" parent="1">
          <mxGeometry x="-400.15205787781355" y="327.5" width="29.843247588424443" height="29.843247588424443" as="geometry" />
        </mxCell>
        <mxCell id="JNNgizCDDAsmNPhYfwY6-287" value="&lt;font style=&quot;font-size: 16px;&quot;&gt;&lt;b&gt;100&lt;/b&gt;&lt;/font&gt;" style="text;html=1;align=center;verticalAlign=middle;resizable=0;points=[];autosize=1;strokeColor=none;fillColor=none;fontSize=13;" vertex="1" parent="1">
          <mxGeometry x="-341.72617363344045" y="328.74500000000006" width="50" height="30" as="geometry" />
        </mxCell>
        <mxCell id="JNNgizCDDAsmNPhYfwY6-289" value="" style="endArrow=classic;html=1;rounded=0;fontSize=13;strokeWidth=2;" edge="1" parent="1">
          <mxGeometry width="50" height="50" relative="1" as="geometry">
            <mxPoint x="-360.7951446945337" y="342.8250000000001" as="sourcePoint" />
            <mxPoint x="-334.55720257234725" y="342.8250000000001" as="targetPoint" />
          </mxGeometry>
        </mxCell>
        <mxCell id="JNNgizCDDAsmNPhYfwY6-294" value="&lt;font style=&quot;font-size: 16px;&quot;&gt;B&lt;/font&gt;" style="ellipse;whiteSpace=wrap;html=1;aspect=fixed;fillColor=#FF0000;fontSize=13;" vertex="1" parent="1">
          <mxGeometry x="-268.962347266881" y="327.5" width="29.843247588424443" height="29.843247588424443" as="geometry" />
        </mxCell>
        <mxCell id="JNNgizCDDAsmNPhYfwY6-295" value="&lt;font style=&quot;font-size: 16px;&quot;&gt;&lt;b&gt;111&lt;/b&gt;&lt;/font&gt;" style="text;html=1;align=center;verticalAlign=middle;resizable=0;points=[];autosize=1;strokeColor=none;fillColor=none;fontSize=13;" vertex="1" parent="1">
          <mxGeometry x="-213.36697749196148" y="327.345" width="50" height="30" as="geometry" />
        </mxCell>
        <mxCell id="JNNgizCDDAsmNPhYfwY6-296" value="" style="endArrow=classic;html=1;rounded=0;fontSize=13;strokeWidth=2;" edge="1" parent="1">
          <mxGeometry width="50" height="50" relative="1" as="geometry">
            <mxPoint x="-229.60543408360118" y="342.8250000000001" as="sourcePoint" />
            <mxPoint x="-203.3674919614149" y="342.8250000000001" as="targetPoint" />
          </mxGeometry>
        </mxCell>
        <mxCell id="JNNgizCDDAsmNPhYfwY6-297" value="&lt;font style=&quot;font-size: 16px;&quot;&gt;C&lt;/font&gt;" style="ellipse;whiteSpace=wrap;html=1;aspect=fixed;fillColor=#FF0000;fontSize=13;" vertex="1" parent="1">
          <mxGeometry x="-131.21315112540188" y="327.5" width="29.843247588424443" height="29.843247588424443" as="geometry" />
        </mxCell>
        <mxCell id="JNNgizCDDAsmNPhYfwY6-298" value="&lt;font style=&quot;font-size: 16px;&quot;&gt;&lt;b&gt;110&lt;/b&gt;&lt;/font&gt;" style="text;html=1;align=center;verticalAlign=middle;resizable=0;points=[];autosize=1;strokeColor=none;fillColor=none;fontSize=13;" vertex="1" parent="1">
          <mxGeometry x="-71.0177813504823" y="327.345" width="50" height="30" as="geometry" />
        </mxCell>
        <mxCell id="JNNgizCDDAsmNPhYfwY6-299" value="" style="endArrow=classic;html=1;rounded=0;fontSize=13;strokeWidth=2;" edge="1" parent="1">
          <mxGeometry width="50" height="50" relative="1" as="geometry">
            <mxPoint x="-91.85623794212214" y="342.8250000000001" as="sourcePoint" />
            <mxPoint x="-65.61829581993562" y="342.8250000000001" as="targetPoint" />
          </mxGeometry>
        </mxCell>
        <mxCell id="JNNgizCDDAsmNPhYfwY6-300" value="&lt;font style=&quot;font-size: 16px;&quot;&gt;D&lt;/font&gt;" style="ellipse;whiteSpace=wrap;html=1;aspect=fixed;fillColor=#FF0000;fontSize=13;" vertex="1" parent="1">
          <mxGeometry x="9.815787781350409" y="327.5" width="29.843247588424443" height="29.843247588424443" as="geometry" />
        </mxCell>
        <mxCell id="JNNgizCDDAsmNPhYfwY6-301" value="&lt;font style=&quot;font-size: 16px;&quot;&gt;&lt;b&gt;011&lt;/b&gt;&lt;/font&gt;" style="text;html=1;align=center;verticalAlign=middle;resizable=0;points=[];autosize=1;strokeColor=none;fillColor=none;fontSize=13;" vertex="1" parent="1">
          <mxGeometry x="65.17115755627017" y="328.74500000000006" width="50" height="30" as="geometry" />
        </mxCell>
        <mxCell id="JNNgizCDDAsmNPhYfwY6-302" value="" style="endArrow=classic;html=1;rounded=0;fontSize=13;strokeWidth=2;" edge="1" parent="1">
          <mxGeometry width="50" height="50" relative="1" as="geometry">
            <mxPoint x="49.17270096463037" y="342.8250000000001" as="sourcePoint" />
            <mxPoint x="75.41064308681686" y="342.8250000000001" as="targetPoint" />
          </mxGeometry>
        </mxCell>
        <mxCell id="JNNgizCDDAsmNPhYfwY6-303" value="" style="endArrow=none;html=1;rounded=0;exitX=0;exitY=0.146;exitDx=0;exitDy=0;exitPerimeter=0;entryX=1;entryY=0.325;entryDx=0;entryDy=0;entryPerimeter=0;fontSize=13;" edge="1" parent="1" target="JNNgizCDDAsmNPhYfwY6-276">
          <mxGeometry width="50" height="50" relative="1" as="geometry">
            <mxPoint x="-413.2710289389068" y="371.24999999999994" as="sourcePoint" />
            <mxPoint x="150.8447266881029" y="371.24999999999994" as="targetPoint" />
          </mxGeometry>
        </mxCell>
        <mxCell id="JNNgizCDDAsmNPhYfwY6-304" value="&lt;font style=&quot;font-size: 16px;&quot;&gt;&lt;b&gt;Sorted node encoding (lexicographically)&lt;/b&gt;&lt;/font&gt;" style="text;html=1;align=center;verticalAlign=middle;resizable=0;points=[];autosize=1;strokeColor=none;fillColor=none;fontSize=13;" vertex="1" parent="1">
          <mxGeometry x="-314.3287459807073" y="378.74999999999994" width="340" height="30" as="geometry" />
        </mxCell>
        <mxCell id="JNNgizCDDAsmNPhYfwY6-305" value="&lt;font style=&quot;font-size: 16px;&quot;&gt;&lt;b&gt;Node encodings&lt;/b&gt;&lt;/font&gt;" style="text;html=1;align=center;verticalAlign=middle;resizable=0;points=[];autosize=1;strokeColor=none;fillColor=none;fontSize=13;" vertex="1" parent="1">
          <mxGeometry x="-219.33697749196148" y="297.50000000000006" width="150" height="30" as="geometry" />
        </mxCell>
        <mxCell id="JNNgizCDDAsmNPhYfwY6-306" value="&lt;font style=&quot;font-size: 16px;&quot;&gt;&lt;b&gt;Egocentric Temporal Neighborhood Signature (2.5)&lt;/b&gt;&lt;/font&gt;" style="text;html=1;align=center;verticalAlign=middle;resizable=0;points=[];autosize=1;strokeColor=none;fillColor=none;fontSize=13;" vertex="1" parent="1">
          <mxGeometry x="-349.3256591639872" y="466.25" width="410" height="30" as="geometry" />
        </mxCell>
        <mxCell id="JNNgizCDDAsmNPhYfwY6-307" value="&lt;font style=&quot;font-size: 16px;&quot;&gt;&lt;b&gt;011&amp;nbsp; -&amp;nbsp; 100&amp;nbsp; -&amp;nbsp; 110&amp;nbsp; -&amp;nbsp; 111&lt;/b&gt;&lt;/font&gt;" style="text;html=1;align=center;verticalAlign=middle;resizable=0;points=[];autosize=1;strokeColor=none;fillColor=none;fontSize=13;" vertex="1" parent="1">
          <mxGeometry x="-244.33491961414796" y="426.66" width="200" height="30" as="geometry" />
        </mxCell>
        <mxCell id="JNNgizCDDAsmNPhYfwY6-308" value="D" style="ellipse;whiteSpace=wrap;html=1;aspect=fixed;fillColor=#FF0000;fontSize=13;" vertex="1" parent="1">
          <mxGeometry x="-227.82861736334402" y="408.75" width="17.905948553054664" height="17.905948553054664" as="geometry" />
        </mxCell>
        <mxCell id="JNNgizCDDAsmNPhYfwY6-312" value="A" style="ellipse;whiteSpace=wrap;html=1;aspect=fixed;fillColor=#FF0000;fontSize=13;" vertex="1" parent="1">
          <mxGeometry x="-174.39057877813505" y="408.75" width="17.905948553054664" height="17.905948553054664" as="geometry" />
        </mxCell>
        <mxCell id="JNNgizCDDAsmNPhYfwY6-313" value="C" style="ellipse;whiteSpace=wrap;html=1;aspect=fixed;fillColor=#FF0000;fontSize=13;" vertex="1" parent="1">
          <mxGeometry x="-125.24633440514472" y="408.75" width="17.905948553054664" height="17.905948553054664" as="geometry" />
        </mxCell>
        <mxCell id="JNNgizCDDAsmNPhYfwY6-314" value="B" style="ellipse;whiteSpace=wrap;html=1;aspect=fixed;fillColor=#FF0000;fontSize=13;" vertex="1" parent="1">
          <mxGeometry x="-80.04614147909965" y="408.75" width="17.905948553054664" height="17.905948553054664" as="geometry" />
        </mxCell>
        <mxCell id="JNNgizCDDAsmNPhYfwY6-318" value="" style="endArrow=none;html=1;rounded=0;exitX=0;exitY=0.146;exitDx=0;exitDy=0;exitPerimeter=0;entryX=1.001;entryY=0.672;entryDx=0;entryDy=0;entryPerimeter=0;fontSize=13;" edge="1" parent="1" target="JNNgizCDDAsmNPhYfwY6-276">
          <mxGeometry width="50" height="50" relative="1" as="geometry">
            <mxPoint x="-413.2710289389068" y="458.0375" as="sourcePoint" />
            <mxPoint x="150.8447266881029" y="458.0375" as="targetPoint" />
          </mxGeometry>
        </mxCell>
        <mxCell id="JNNgizCDDAsmNPhYfwY6-319" value="&lt;font style=&quot;font-size: 16px;&quot;&gt;&lt;b&gt;001100110111&lt;/b&gt;&lt;/font&gt;" style="text;html=1;align=center;verticalAlign=middle;resizable=0;points=[];autosize=1;strokeColor=none;fillColor=none;labelBorderColor=none;textShadow=0;fontSize=13;" vertex="1" parent="1">
          <mxGeometry x="-213.3674919614149" y="496.25" width="130" height="30" as="geometry" />
        </mxCell>
        <mxCell id="JNNgizCDDAsmNPhYfwY6-325" value="" style="endArrow=none;html=1;rounded=0;strokeWidth=2;fontSize=13;" edge="1" parent="1">
          <mxGeometry width="50" height="50" relative="1" as="geometry">
            <mxPoint x="-693.1994533762058" y="527.5000000000001" as="sourcePoint" />
            <mxPoint x="-693.1994533762058" y="515" as="targetPoint" />
          </mxGeometry>
        </mxCell>
        <mxCell id="JNNgizCDDAsmNPhYfwY6-326" value="" style="endArrow=none;html=1;rounded=0;strokeWidth=2;fontSize=13;" edge="1" parent="1">
          <mxGeometry width="50" height="50" relative="1" as="geometry">
            <mxPoint x="-591.5405466237943" y="527.5000000000001" as="sourcePoint" />
            <mxPoint x="-591.5405466237943" y="515" as="targetPoint" />
          </mxGeometry>
        </mxCell>
        <mxCell id="JNNgizCDDAsmNPhYfwY6-327" value="" style="endArrow=none;html=1;rounded=0;strokeWidth=2;fontSize=13;" edge="1" parent="1">
          <mxGeometry width="50" height="50" relative="1" as="geometry">
            <mxPoint x="-496.45424437299044" y="527.5000000000001" as="sourcePoint" />
            <mxPoint x="-496.45424437299044" y="515" as="targetPoint" />
          </mxGeometry>
        </mxCell>
        <mxCell id="JNNgizCDDAsmNPhYfwY6-328" value="&lt;div&gt;&lt;font&gt;&lt;b&gt;&lt;br&gt;&lt;/b&gt;&lt;/font&gt;&lt;/div&gt;&lt;div&gt;&lt;font&gt;&lt;b&gt;Time&lt;/b&gt;&lt;/font&gt;&lt;/div&gt;" style="text;html=1;align=center;verticalAlign=middle;resizable=0;points=[];autosize=1;strokeColor=none;fillColor=none;fontSize=13;" vertex="1" parent="1">
          <mxGeometry x="-477.04572347266884" y="491.25" width="50" height="40" as="geometry" />
        </mxCell>
        <mxCell id="JNNgizCDDAsmNPhYfwY6-329" value="" style="endArrow=none;html=1;rounded=0;strokeWidth=2;fontSize=13;" edge="1" parent="1">
          <mxGeometry width="50" height="50" relative="1" as="geometry">
            <mxPoint x="-352.08549839228294" y="257.5" as="sourcePoint" />
            <mxPoint x="-352.08549839228294" y="245" as="targetPoint" />
          </mxGeometry>
        </mxCell>
        <mxCell id="JNNgizCDDAsmNPhYfwY6-330" value="" style="endArrow=none;html=1;rounded=0;strokeWidth=2;fontSize=13;" edge="1" parent="1">
          <mxGeometry width="50" height="50" relative="1" as="geometry">
            <mxPoint x="-142.18196141479095" y="257.5" as="sourcePoint" />
            <mxPoint x="-142.18196141479095" y="245" as="targetPoint" />
          </mxGeometry>
        </mxCell>
        <mxCell id="JNNgizCDDAsmNPhYfwY6-331" value="" style="endArrow=none;html=1;rounded=0;strokeWidth=2;fontSize=13;" edge="1" parent="1">
          <mxGeometry width="50" height="50" relative="1" as="geometry">
            <mxPoint x="67.7215755627009" y="257.5" as="sourcePoint" />
            <mxPoint x="67.7215755627009" y="245" as="targetPoint" />
          </mxGeometry>
        </mxCell>
        <mxCell id="JNNgizCDDAsmNPhYfwY6-332" value="0" style="text;html=1;align=center;verticalAlign=middle;resizable=0;points=[];autosize=1;strokeColor=none;fillColor=none;fontSize=16;" vertex="1" parent="1">
          <mxGeometry x="-709.6679742765274" y="483.75" width="30" height="30" as="geometry" />
        </mxCell>
        <mxCell id="JNNgizCDDAsmNPhYfwY6-333" value="1" style="text;html=1;align=center;verticalAlign=middle;resizable=0;points=[];autosize=1;strokeColor=none;fillColor=none;fontSize=16;" vertex="1" parent="1">
          <mxGeometry x="-606.4340514469453" y="483.75" width="30" height="30" as="geometry" />
        </mxCell>
        <mxCell id="JNNgizCDDAsmNPhYfwY6-334" value="2" style="text;html=1;align=center;verticalAlign=middle;resizable=0;points=[];autosize=1;strokeColor=none;fillColor=none;fontSize=16;" vertex="1" parent="1">
          <mxGeometry x="-512.7215112540193" y="483.75" width="30" height="30" as="geometry" />
        </mxCell>
        <mxCell id="JNNgizCDDAsmNPhYfwY6-336" value="&lt;font style=&quot;font-size: 16px;&quot;&gt;0&lt;/font&gt;" style="text;html=1;align=center;verticalAlign=middle;resizable=0;points=[];autosize=1;strokeColor=none;fillColor=none;fontSize=13;" vertex="1" parent="1">
          <mxGeometry x="-366.9265273311896" y="216.87499999999997" width="30" height="30" as="geometry" />
        </mxCell>
        <mxCell id="JNNgizCDDAsmNPhYfwY6-337" value="&lt;font style=&quot;font-size: 16px;&quot;&gt;1&lt;/font&gt;" style="text;html=1;align=center;verticalAlign=middle;resizable=0;points=[];autosize=1;strokeColor=none;fillColor=none;fontSize=13;" vertex="1" parent="1">
          <mxGeometry x="-157.02299035369785" y="216.87499999999997" width="30" height="30" as="geometry" />
        </mxCell>
        <mxCell id="JNNgizCDDAsmNPhYfwY6-338" value="&lt;font style=&quot;font-size: 16px;&quot;&gt;2&lt;/font&gt;" style="text;html=1;align=center;verticalAlign=middle;resizable=0;points=[];autosize=1;strokeColor=none;fillColor=none;fontSize=13;" vertex="1" parent="1">
          <mxGeometry x="51.99054662379425" y="216.87499999999997" width="30" height="30" as="geometry" />
        </mxCell>
      </root>
    </mxGraphModel>
  </diagram>
</mxfile>
